<svg id="visual" viewBox="0 0 960 300" width="960" height="300" xmlns="http://www.w3.org/2000/svg" xmlns:xlink="http://www.w3.org/1999/xlink" version="1.1"><rect x="0" y="0" width="960" height="300" fill="#ffffff"></rect><path d="M0 195L22.8 197C45.7 199 91.3 203 137 204.2C182.7 205.3 228.3 203.7 274 198.7C319.7 193.7 365.3 185.3 411.2 187.7C457 190 503 203 548.8 207.5C594.7 212 640.3 208 686 206.7C731.7 205.3 777.3 206.7 823 202.7C868.7 198.7 914.3 189.3 937.2 184.7L960 180L960 301L937.2 301C914.3 301 868.7 301 823 301C777.3 301 731.7 301 686 301C640.3 301 594.7 301 548.8 301C503 301 457 301 411.2 301C365.3 301 319.7 301 274 301C228.3 301 182.7 301 137 301C91.3 301 45.7 301 22.8 301L0 301Z" fill="#8fd7c7"></path><path d="M0 214L22.8 211.7C45.7 209.3 91.3 204.7 137 204C182.7 203.3 228.3 206.7 274 211.7C319.7 216.7 365.3 223.3 411.2 227C457 230.7 503 231.3 548.8 225.7C594.7 220 640.3 208 686 204.2C731.7 200.3 777.3 204.7 823 208.3C868.7 212 914.3 215 937.2 216.5L960 218L960 301L937.2 301C914.3 301 868.7 301 823 301C777.3 301 731.7 301 686 301C640.3 301 594.7 301 548.8 301C503 301 457 301 411.2 301C365.3 301 319.7 301 274 301C228.3 301 182.7 301 137 301C91.3 301 45.7 301 22.8 301L0 301Z" fill="#86d6d2"></path><path d="M0 237L22.8 234C45.7 231 91.3 225 137 228C182.7 231 228.3 243 274 246.2C319.7 249.3 365.3 243.7 411.2 243.2C457 242.7 503 247.3 548.8 244.8C594.7 242.3 640.3 232.7 686 231.7C731.7 230.7 777.3 238.3 823 241.2C868.7 244 914.3 242 937.2 241L960 240L960 301L937.2 301C914.3 301 868.7 301 823 301C777.3 301 731.7 301 686 301C640.3 301 594.7 301 548.8 301C503 301 457 301 411.2 301C365.3 301 319.7 301 274 301C228.3 301 182.7 301 137 301C91.3 301 45.7 301 22.8 301L0 301Z" fill="#81d4dc"></path><path d="M0 247L22.8 246C45.7 245 91.3 243 137 242.2C182.7 241.3 228.3 241.7 274 243.2C319.7 244.7 365.3 247.3 411.2 250.7C457 254 503 258 548.8 260.3C594.7 262.7 640.3 263.3 686 261.5C731.7 259.7 777.3 255.3 823 255.2C868.7 255 914.3 259 937.2 261L960 263L960 301L937.2 301C914.3 301 868.7 301 823 301C777.3 301 731.7 301 686 301C640.3 301 594.7 301 548.8 301C503 301 457 301 411.2 301C365.3 301 319.7 301 274 301C228.3 301 182.7 301 137 301C91.3 301 45.7 301 22.8 301L0 301Z" fill="#81d1e4"></path><path d="M0 267L22.8 269.7C45.7 272.3 91.3 277.7 137 280.8C182.7 284 228.3 285 274 285.5C319.7 286 365.3 286 411.2 284.2C457 282.3 503 278.7 548.8 275C594.7 271.3 640.3 267.7 686 267C731.7 266.3 777.3 268.7 823 269.5C868.7 270.3 914.3 269.7 937.2 269.3L960 269L960 301L937.2 301C914.3 301 868.7 301 823 301C777.3 301 731.7 301 686 301C640.3 301 594.7 301 548.8 301C503 301 457 301 411.2 301C365.3 301 319.7 301 274 301C228.3 301 182.7 301 137 301C91.3 301 45.7 301 22.8 301L0 301Z" fill="#87ceeb"></path></svg>