<svg id="visual" viewBox="0 0 960 300" width="960" height="300" xmlns="http://www.w3.org/2000/svg" xmlns:xlink="http://www.w3.org/1999/xlink" version="1.1"><rect x="0" y="0" width="960" height="300" fill="#ffffff"></rect><path d="M0 120L22.8 115.5C45.7 111 91.3 102 137 97.2C182.7 92.3 228.3 91.7 274 96C319.7 100.3 365.3 109.7 411.2 109C457 108.3 503 97.7 548.8 96.2C594.7 94.7 640.3 102.3 686 108.3C731.7 114.3 777.3 118.7 823 118.2C868.7 117.7 914.3 112.3 937.2 109.7L960 107L960 0L937.2 0C914.3 0 868.7 0 823 0C777.3 0 731.7 0 686 0C640.3 0 594.7 0 548.8 0C503 0 457 0 411.2 0C365.3 0 319.7 0 274 0C228.3 0 182.7 0 137 0C91.3 0 45.7 0 22.8 0L0 0Z" fill="#8fd7c7"></path><path d="M0 61L22.8 63.2C45.7 65.3 91.3 69.7 137 75.2C182.7 80.7 228.3 87.3 274 85.7C319.7 84 365.3 74 411.2 69.5C457 65 503 66 548.8 71.5C594.7 77 640.3 87 686 91C731.7 95 777.3 93 823 88.5C868.7 84 914.3 77 937.2 73.5L960 70L960 0L937.2 0C914.3 0 868.7 0 823 0C777.3 0 731.7 0 686 0C640.3 0 594.7 0 548.8 0C503 0 457 0 411.2 0C365.3 0 319.7 0 274 0C228.3 0 182.7 0 137 0C91.3 0 45.7 0 22.8 0L0 0Z" fill="#86d6d2"></path><path d="M0 46L22.8 48.5C45.7 51 91.3 56 137 56C182.7 56 228.3 51 274 51.5C319.7 52 365.3 58 411.2 58.8C457 59.7 503 55.3 548.8 55.8C594.7 56.3 640.3 61.7 686 63.7C731.7 65.7 777.3 64.3 823 66.2C868.7 68 914.3 73 937.2 75.5L960 78L960 0L937.2 0C914.3 0 868.7 0 823 0C777.3 0 731.7 0 686 0C640.3 0 594.7 0 548.8 0C503 0 457 0 411.2 0C365.3 0 319.7 0 274 0C228.3 0 182.7 0 137 0C91.3 0 45.7 0 22.8 0L0 0Z" fill="#81d4dc"></path><path d="M0 31L22.8 35.5C45.7 40 91.3 49 137 50.2C182.7 51.3 228.3 44.7 274 41.2C319.7 37.7 365.3 37.3 411.2 40.7C457 44 503 51 548.8 50.7C594.7 50.3 640.3 42.7 686 40.2C731.7 37.7 777.3 40.3 823 43.8C868.7 47.3 914.3 51.7 937.2 53.8L960 56L960 0L937.2 0C914.3 0 868.7 0 823 0C777.3 0 731.7 0 686 0C640.3 0 594.7 0 548.8 0C503 0 457 0 411.2 0C365.3 0 319.7 0 274 0C228.3 0 182.7 0 137 0C91.3 0 45.7 0 22.8 0L0 0Z" fill="#81d1e4"></path><path d="M0 26L22.8 25.3C45.7 24.7 91.3 23.3 137 22.3C182.7 21.3 228.3 20.7 274 19C319.7 17.3 365.3 14.7 411.2 13.7C457 12.7 503 13.3 548.8 17C594.7 20.7 640.3 27.3 686 29.3C731.7 31.3 777.3 28.7 823 28.2C868.7 27.7 914.3 29.3 937.2 30.2L960 31L960 0L937.2 0C914.3 0 868.7 0 823 0C777.3 0 731.7 0 686 0C640.3 0 594.7 0 548.8 0C503 0 457 0 411.2 0C365.3 0 319.7 0 274 0C228.3 0 182.7 0 137 0C91.3 0 45.7 0 22.8 0L0 0Z" fill="#87ceeb"></path></svg>